<svg fill="none" height="24" viewBox="0 0 24 24" width="24" xmlns="http://www.w3.org/2000/svg"><path clip-rule="evenodd" d="m6.76954 3.08151c3.44816-.38537 7.01286-.38537 10.46096 0 1.8984.21218 3.4296 1.70796 3.6524 3.61301.4123 3.52498.4123 7.08608 0 10.61108-.2228 1.905-1.754 3.4008-3.6524 3.613-3.4481.3854-7.0128.3854-10.46096 0-1.8984-.2122-3.42959-1.708-3.65241-3.613-.41228-3.525-.41228-7.0861 0-10.61108.22282-1.90505 1.75401-3.40083 3.65241-3.61301zm9.80536 4.16852c.0618.3447-.0181.68083-.3382.71106l-.5313.09589-.2208 8.31702c-.4678.2502-.8935.3875-1.2449.3753-.5667-.0197-.7034-.2149-1.1104-.7958l-3.30522-5.9461-.14958 5.6357 1.0879.3043s-.018.6808-.9005.6501l-2.43946.0673c-.06681-.1545.01412-.5319.2643-.5962l.63984-.1682.19773-7.44959-.88045-.1067c-.06176-.3447.12866-.82908.62219-.84963l2.61735-.09936 3.4446 6.02658.1386-5.22104-.9152-.14623c-.0598-.41704.2288-.71122.584-.73414z" fill="#000" fill-rule="evenodd"/></svg>